<svg width="37" height="37" viewBox="0 0 37 37" fill="none" xmlns="http://www.w3.org/2000/svg">
<path d="M4.625 8.09375C3.98906 8.09375 3.46875 8.61406 3.46875 9.25V10.8471L15.9346 21.0799C17.4305 22.3084 19.5768 22.3084 21.0727 21.0799L33.5312 10.8471V9.25C33.5312 8.61406 33.0109 8.09375 32.375 8.09375H4.625ZM3.46875 15.3348V27.75C3.46875 28.3859 3.98906 28.9062 4.625 28.9062H32.375C33.0109 28.9062 33.5312 28.3859 33.5312 27.75V15.3348L23.2695 23.7609C20.4945 26.0373 16.4982 26.0373 13.7305 23.7609L3.46875 15.3348ZM0 9.25C0 6.69902 2.07402 4.625 4.625 4.625H32.375C34.926 4.625 37 6.69902 37 9.25V27.75C37 30.301 34.926 32.375 32.375 32.375H4.625C2.07402 32.375 0 30.301 0 27.75V9.25Z" fill="black"/>
</svg>
