<svg width="87" height="87" viewBox="0 0 87 87" fill="none" xmlns="http://www.w3.org/2000/svg">
<path d="M85.3551 39.6217L47.3684 1.63939C45.1788 -0.546463 41.6336 -0.546463 39.4368 1.63939L31.5668 9.52368L41.5719 19.5286C43.9101 18.7492 46.5709 19.2748 48.4196 21.1272C50.2901 22.994 50.8049 25.6874 50.0074 28.0146L59.6427 37.657C61.9809 36.8486 64.6707 37.3743 66.5303 39.2339C69.144 41.8438 69.144 46.0633 66.5303 48.6733C63.9239 51.2796 59.7116 51.2796 57.1052 48.6733C55.1513 46.7122 54.6619 43.8267 55.6407 41.4378L46.618 32.4624V56.1153C47.256 56.4271 47.8577 56.8512 48.387 57.3768C50.9717 59.9904 50.9717 64.2026 48.387 66.8017C45.7806 69.4153 41.5393 69.4153 38.9293 66.8017C36.3229 64.1954 36.3229 59.9904 38.9293 57.3841C39.589 56.7316 40.3322 56.2386 41.1224 55.9123V32.0274C40.3358 31.6976 39.5854 31.2227 38.9474 30.5738C36.9718 28.5982 36.4969 25.7091 37.5119 23.2913L27.6808 13.4133L1.63127 39.4441C-0.543756 41.6372 -0.543756 45.1861 1.63127 47.3792L39.6217 85.3579C41.8112 87.5474 45.3565 87.5474 47.546 85.3579L85.3551 47.5495C87.5483 45.3637 87.5483 41.8148 85.3551 39.6217Z" fill="#F05032"/>
</svg>
