<svg width="49" height="37" viewBox="0 0 49 37" fill="none" xmlns="http://www.w3.org/2000/svg">
<path d="M40.9872 3.12421C40.9731 3.09752 40.9497 3.07696 40.9215 3.0664C37.7892 1.62263 34.4839 0.592732 31.088 0.0024357C31.0575 -0.00318086 31.026 0.000972751 30.998 0.01431C30.97 0.0276472 30.9468 0.049494 30.9318 0.0767638C30.4814 0.897916 30.0725 1.74137 29.7068 2.60391C26.0443 2.04552 22.3189 2.04552 18.6565 2.60391C18.2892 1.73924 17.8748 0.895574 17.415 0.0767638C17.3991 0.0503066 17.3758 0.0291409 17.348 0.0159189C17.3202 0.00269692 17.2892 -0.00199338 17.2588 0.0024357C13.857 0.590073 10.5459 1.62005 7.40889 3.0664C7.38138 3.07811 7.35832 3.09837 7.34311 3.12421C1.07801 12.5308 -0.640376 21.6979 0.19826 30.7577C0.200635 30.7805 0.20771 30.8026 0.219034 30.8225C0.230358 30.8424 0.245684 30.8597 0.264036 30.8733C3.91346 33.5847 7.99472 35.654 12.3338 36.993C12.365 37.0027 12.3984 37.0023 12.4294 36.9919C12.4604 36.9816 12.4873 36.9617 12.5065 36.9352C13.4375 35.6621 14.2625 34.3141 14.9731 32.9049C14.9825 32.8856 14.9879 32.8644 14.9888 32.8428C14.9898 32.8213 14.9863 32.7997 14.9786 32.7796C14.9709 32.7594 14.9591 32.7411 14.944 32.7257C14.9289 32.7103 14.9108 32.6982 14.8908 32.6902C13.5873 32.1885 12.3254 31.5837 11.117 30.8816C11.0956 30.8684 11.0777 30.8504 11.0648 30.8288C11.0519 30.8073 11.0443 30.783 11.0427 30.7579C11.041 30.7328 11.0455 30.7076 11.0555 30.6846C11.0656 30.6616 11.081 30.6413 11.1005 30.6256C11.3554 30.4356 11.6103 30.2374 11.8487 30.0392C11.8698 30.0206 11.8956 30.0085 11.9233 30.0041C11.9509 29.9997 11.9792 30.0033 12.0049 30.0144C19.9144 33.64 28.4817 33.64 36.3007 30.0144C36.3257 30.0022 36.3536 29.9972 36.3812 30.0001C36.4088 30.0031 36.4351 30.0137 36.457 30.0309C36.6954 30.2291 36.9503 30.4356 37.2052 30.6256C37.2246 30.6413 37.2401 30.6616 37.2502 30.6846C37.2602 30.7076 37.2646 30.7328 37.263 30.7579C37.2614 30.783 37.2538 30.8073 37.2409 30.8288C37.228 30.8504 37.2101 30.8684 37.1887 30.8816C35.9834 31.5873 34.721 32.1896 33.4148 32.682C33.3949 32.69 33.3768 32.7021 33.3617 32.7174C33.3466 32.7328 33.3348 32.7512 33.3271 32.7713C33.3194 32.7915 33.3159 32.813 33.3168 32.8346C33.3178 32.8562 33.3232 32.8773 33.3326 32.8967C34.0556 34.2989 34.88 35.6459 35.7992 36.9269C35.8184 36.9535 35.8453 36.9733 35.8763 36.9837C35.9073 36.9941 35.9407 36.9944 35.9719 36.9847C40.3235 35.6518 44.4166 33.5821 48.0745 30.8651C48.0933 30.8518 48.1089 30.8346 48.1202 30.8146C48.1316 30.7946 48.1385 30.7724 48.1403 30.7494C49.1434 20.2857 46.4466 11.1929 40.9872 3.12421ZM16.157 25.2409C13.7727 25.2409 11.8158 23.0441 11.8158 20.3518C11.8158 17.6595 13.7398 15.4544 16.157 15.4544C18.5989 15.4544 20.5393 17.6677 20.4982 20.3435C20.4982 23.0441 18.5743 25.2409 16.157 25.2409ZM32.2227 25.2409C29.8383 25.2409 27.8815 23.0441 27.8815 20.3518C27.8815 17.6595 29.7972 15.4544 32.2227 15.4544C34.6646 15.4544 36.6049 17.6677 36.5638 20.3435C36.5638 23.0441 34.6564 25.2409 32.2227 25.2409Z" fill="black"/>
</svg>
