<svg width="38" height="37" viewBox="0 0 38 37" fill="none" xmlns="http://www.w3.org/2000/svg">
<path d="M12.6927 29.7923C12.6927 29.9454 12.5168 30.0678 12.2949 30.0678C12.0424 30.0907 11.8664 29.9683 11.8664 29.7923C11.8664 29.6393 12.0424 29.5169 12.2643 29.5169C12.4938 29.494 12.6927 29.6164 12.6927 29.7923ZM10.3133 29.4481C10.2598 29.6011 10.4128 29.777 10.6423 29.8229C10.8412 29.8995 11.0708 29.8229 11.1167 29.6699C11.1626 29.5169 11.0172 29.3409 10.7877 29.2721C10.5888 29.2185 10.3669 29.295 10.3133 29.4481ZM13.695 29.318C13.4731 29.3716 13.3201 29.5169 13.3431 29.6929C13.366 29.8459 13.5649 29.9454 13.7945 29.8918C14.0163 29.8383 14.1693 29.6929 14.1464 29.5399C14.1234 29.3945 13.9169 29.295 13.695 29.318ZM18.7292 0C8.11753 0 0 8.05633 0 18.668C0 27.1528 5.34028 34.4135 12.9682 36.9688C13.9475 37.1448 14.2918 36.5404 14.2918 36.0431C14.2918 35.5687 14.2688 32.9521 14.2688 31.3455C14.2688 31.3455 8.91322 32.4931 7.78855 29.0655C7.78855 29.0655 6.91635 26.8391 5.66162 26.2653C5.66162 26.2653 3.90958 25.0641 5.78403 25.0871C5.78403 25.0871 7.68909 25.2401 8.73725 27.061C10.4128 30.0142 13.2206 29.165 14.3147 28.66C14.4907 27.4359 14.988 26.5866 15.5388 26.0817C11.262 25.6073 6.94696 24.9876 6.94696 17.6275C6.94696 15.5235 7.52842 14.4677 8.75255 13.1212C8.55363 12.6239 7.90331 10.5735 8.95148 7.92626C10.5505 7.42896 14.2306 9.99199 14.2306 9.99199C15.7607 9.56354 17.4056 9.34167 19.0353 9.34167C20.6649 9.34167 22.3098 9.56354 23.84 9.99199C23.84 9.99199 27.52 7.42131 29.1191 7.92626C30.1672 10.5811 29.5169 12.6239 29.318 13.1212C30.5421 14.4754 31.2919 15.5312 31.2919 17.6275C31.2919 25.0106 26.7856 25.5997 22.5088 26.0817C23.2126 26.6861 23.8094 27.8337 23.8094 29.6317C23.8094 32.21 23.7864 35.4004 23.7864 36.0278C23.7864 36.5251 24.1384 37.1295 25.11 36.9535C32.7609 34.4134 37.9481 27.1528 37.9481 18.668C37.9481 8.05633 29.3409 0 18.7292 0ZM7.43661 26.3877C7.33715 26.4642 7.3601 26.6402 7.49017 26.7856C7.61258 26.908 7.78855 26.9615 7.88801 26.8621C7.98747 26.7856 7.96452 26.6096 7.83445 26.4642C7.71204 26.3418 7.53607 26.2883 7.43661 26.3877ZM6.61032 25.768C6.55676 25.8675 6.63327 25.9899 6.78629 26.0664C6.9087 26.1429 7.06172 26.1199 7.11528 26.0128C7.16883 25.9134 7.09232 25.791 6.93931 25.7145C6.78629 25.6685 6.66388 25.6915 6.61032 25.768ZM9.08919 28.4917C8.96678 28.5912 9.01268 28.8207 9.18865 28.9661C9.36462 29.142 9.58649 29.165 9.68596 29.0426C9.78542 28.9431 9.73951 28.7136 9.58649 28.5682C9.41818 28.3922 9.18865 28.3693 9.08919 28.4917ZM8.217 27.367C8.09458 27.4435 8.09458 27.6425 8.217 27.8184C8.33941 27.9944 8.54598 28.0709 8.64544 27.9944C8.76786 27.8949 8.76786 27.696 8.64544 27.5201C8.53833 27.3441 8.33941 27.2676 8.217 27.367Z" fill="black"/>
</svg>
