<svg width="39" height="39" viewBox="0 0 39 39" fill="none" xmlns="http://www.w3.org/2000/svg">
<path d="M38.4286 35.6695C38.6097 35.8506 38.7534 36.0657 38.8515 36.3024C38.9495 36.5391 39 36.7928 39 37.049C39 37.3052 38.9495 37.5589 38.8515 37.7956C38.7534 38.0323 38.6097 38.2474 38.4286 38.4286C38.2474 38.6097 38.0323 38.7534 37.7956 38.8515C37.5589 38.9495 37.3052 39 37.049 39C36.7928 39 36.5391 38.9495 36.3024 38.8515C36.0657 38.7534 35.8506 38.6097 35.6695 38.4286L19.5 22.2567L3.33052 38.4286C2.96464 38.7945 2.46841 39 1.95098 39C1.43354 39 0.937306 38.7945 0.571427 38.4286C0.205548 38.0627 1.01998e-08 37.5665 0 37.049C-1.01998e-08 36.5316 0.205549 36.0354 0.571427 35.6695L16.7433 19.5L0.571427 3.33052C0.205548 2.96464 -3.85516e-09 2.46841 0 1.95098C3.85516e-09 1.43354 0.205548 0.937306 0.571427 0.571427C0.937306 0.205548 1.43354 3.85516e-09 1.95098 0C2.46841 -3.85516e-09 2.96464 0.205548 3.33052 0.571427L19.5 16.7433L35.6695 0.571427C36.0354 0.205549 36.5316 -1.01998e-08 37.049 0C37.5665 1.01998e-08 38.0627 0.205548 38.4286 0.571427C38.7945 0.937306 39 1.43354 39 1.95098C39 2.46841 38.7945 2.96464 38.4286 3.33052L22.2567 19.5L38.4286 35.6695Z" fill="#B4E746"/>
</svg>
